<?xml version="1.0" encoding="UTF-8" standalone="yes"?>
<svg version="1.2" viewBox="0 0 600 600" baseProfile="tiny-ps" xmlns="http://www.w3.org/2000/svg">
  <title>bimi-svg-tiny-12-ps</title>
  <g fill-opacity="1" fill-rule="evenodd" stroke="none">
    <path d="M300 10h10a280 280 0 01 30 0h-20a790 790 0 01-20 0m-30 0h-30c-10 0-10 0 0 0a390 390 0 01 30 0m70 0h10-10m-50 0-70 10h-10l-10 10h10a300 300 0 01 220 10l-20-10a320 320 0 00-120-20m70 0 10 10V10h-20 10m20 10h10a320 320 0 01 50 20l-20-10a90 90 0 01-20-10h-20M270 40l-10 10h10-10v10-20l-20 10h10v30h-10 30-10V70h10v10h10l10-10h-10l-10-10 10-10V40h-10m40 0v10h20v20h-20c0 10 30 20 30 0V40h-30m130 0 10 10V40h-10m-80 10v20a730 730 0 00-10 10l20 10 20-10c10-10 0-20-10-30h-20M210 60a300 300 0 00-30 10h10l10 20v10l20-10 10-10h-10l-10 10V70h-10 20V60h-10m170 0v20h-10V60h10m40 20v10l-10 10-10 10 20 10v-20l10 10 20-10-10-20h-20M160 80l-30 20h10l10 10v20h10l10-10v-10l-10 10v-10h20l10-10h-10c-10 0-10 0 0 0l-20-20m340 10 10 10-10-10m-60 0v10h-10V90h10M160 90v10h-10l10-10m360 20c-10 0 0 0 0 0m-50 0-20 20v10h10s0-10 0 0v10l10 10h10l-10-10h10c10 0 20-10 10-20l-20-20m-360 10-10 10v10h20l10 10v10l20-20-10-10v10h-10v-10h-10l10-10v-10l-20 10m210-10h-10 10v10s-10 0 0 0v10h20v10-30h-20m160 20h-10 10m20 20v10l-10 10h-10c-10 0-10 0 0 0v10l10 10v-10l20-10h10l-10-10-10-10M90 150c-10 10-20 30-10 40s30 0 40-10v-20l-10 10c0 10-10 20-20 10s0-20 10-20l-10-10m430 30-10 10h-20v10l10 10v-10h10v10l-10 10h40v-10l-10-10v10h-10v-10l10-20h-10M60 200v10h10l10 10H60l-10 10v10h30v10l10-10v-10H70l20-10h10l-20-10-10-10H60m520 30v10a430 430 0 01 10 50v-50l-10-10m-40 10h-10 10v10h-30v20h10v-10h20s10 0 0 0v10h10v-30h-10M50 250v20h30v10l10-10-10-10c0-10 0-10 0 0H70l-10-10H50m360 20-10 20h-30v20h20l10 10v10h20v-60h-10m-230 0v50l10 10h10v-10l10-10h20v-20h-30l-10-20h-10M70 280l-10 20v10-30c-20 0-20 30-10 30 10 10 20 0 20-10v-10 30l10-10c10-10 0-30-10-30m450 0-10 20c10 20 20 20 30 0v-10 30c20-10 20-30 0-40l-10 20v10l-10-20h10v-10h-10m-170 40c0 10 0 0 0 0 0-10 0-10 0 0M70 390v10H60l-10 10h10l20 10v-20l-10-10m450 10 10 10h-10v10h20v-10l-10-10v-10l-10 10M70 410c10 0 10 0 0 0v-10 10m10 10-10 10H60h10v10h10-10l10 10v-10c10 10 20 0 10-10l-10-10m430 10-10 10h10l10 10c0 10 0 10 0 0v-10h10l10-10h-30m-170 0a1140 1140 0 01-20 10c-10 10-10 10 0 0h-40a220 220 0 01-20-10l10 20-20-10h-20a230 230 0 00 20 20l-20-10h-30l30 10 10 10h-20l-40-10 20 20a250 250 0 00 140 10l60-10 20-20-10 10a470 470 0 00-50 0c-10 10-10 0 0 0l30-20-30 10c-20 10-20 10 0-10l20-20-30 10-20 10 10-10v-10h10-10M90 430l-10 10v-10h10m430 0v10l-10-10h10m-20 20h-10 10v10h-20l10 10v10l-10-10-10 10h20v10l10-10-10-10h20l-10-20v-10 10m-400 0-10 10c-10 0-10 0 0 0v10l10-10c0-10 0-10 0 0h10v-10h-10m190 0v10h10c0-10 0-10 0 0h10v-10 10c0 10 0 10 0 0h20-10v10h10c10-10 10-10 0 0v10l20-10v10h10v10h10-50c10 0 0 0 0 0h-20a240 240 0 01-70 0l10-10h10v-10l20 10-10-10v-10l20 10v-10c-10-10-10-10 0 0l10 10v-20m-180 10-10 10H90l10 10s10 0 0 0l10-10v20l10-10h10l-10-10v10-10l-10-10m20 20v20h-10l10 10 10-20v10h10v-10l-10-10h-10m250 0h-10 10m70 10-10 10 10 10v10l10-10h10v-10l-20-10m10 10h-10 10m-310 0v10h-10v10h10l10-10v-10h-10m280 10s-10 0 0 0v20l-10-10v-10l-10 10 10 10h20v-30l-10 10m-260 0-10 10v10h10v-10 10l10 10v-10l10-10h-10c0 10 0 10 0 0v-10h-10m230 10-10 20 20 10c10-10 0-30-10-30m-200 10-10 20 20-10h-10v10-20l10 10h10l-20-10m200 0 10 10h-20l10-10m-20 0h-10v10h-20 10l10 10v10h10v-30m-150 10v20h20l-10-20h-10m100 0h-10v10h10v20c20 0 20 0 10-10h-10 10v-10h-10 10v-10h-10m-90 0v20-20m30 0c-10 0-20 10-10 20h20c10-10 0-20-10-20m40 0v10h-10v-10h-10v30h10v-10l10 10v-20h10l-10-10m-40 10v10h-10l10-10" fill="#b92a3e"/>
    <path d="M280 10h10a390 390 0 00-110 20 340 340 0 00-40 30h-10l-10 10h-10a410 410 0 00-50 70 380 380 0 00-40 70l-10 20v20a60 60 0 00 0 10 890 890 0 01-10 40 270 270 0 00 50 160l10 10a260 260 0 00-40-70v-10 10l10-10 10-10v-10h80v10a520 520 0 01 20 30v10a200 200 0 00 50 40h10l10 10-10-10-20-10a190 190 0 01-50-220c10-40 40-70 80-90l30-10v50l10 50v50a3200 3200 0 01 10 60v20l10 20v10h10l-10-20-10-20h10v-40l-10-10v-40l-10-20v-30a3380 3380 0 01-10-90l60-10v230l-10 10h10v40l10-10h-10v20-10l30-20-10-10h-10l10-10v-40h10v60l-10 10-20 30v-10l-20-10v10l20 20 10-10 10-20 20-30v-50l10-10a5390 5390 0 01 30-170 190 190 0 01 60 300l10-10a200 200 0 00 30-40l40-10h40v10l10 10 10 10v10h-10v10l10-20a260 260 0 00 10-70 510 510 0 00 0-80v-20a220 220 0 00-30-70 600 600 0 00-20-30v-10h-10a270 270 0 00-50-50 160 160 0 00-30-20V40v10l-10-10 10 10a230 230 0 01 50 40 110 110 0 00-20-10 230 230 0 00-30-30l-60-20A290 290 0 00 60 130s0 10 0 0C110 60 180 20 270 10h10a320 320 0 01 30 0h10-40m40 0h10-10m-50 0h10-10m-10 0c10 0 10 0 0 0m80 0h-20l60 10a340 340 0 01 60 20h-10a320 320 0 00-50-20l-10-10v10s10 0 0 0l-10-10h-20 10-10m-90 0h-10 10m60 0 50 10 50 10 20 10a190 190 0 01 30 20 330 330 0 00 10 10 290 290 0 01 120 200c0 40 0 50-20 60l-40 10h-40v-10c10-30 0-80-20-120a190 190 0 00-360 120v10H80l-50-10c-20-10-20-30-20-80A290 290 0 01 200 30l10-10h10a340 340 0 01 90-10m50 0h10a100 100 0 01-10 0m-90 0h10-10m60 0c10 0 0 0 0 0m10 0h10-10M240 20h10-10m70 20h10-10m-30 0v10-10m-20 10v10-10 10-10m-20 0h10c0 10 0 10 0 0h-10m-30 10h10-10c0-10 0-10 0 0m60 0c0-10 0-10 0 0m120 0v10-10M210 60h-10 10m60 0h10-10m-70 0s-10 0 0 0m140 0v10-10m40 0v10h10l-10-10M190 60l-10 10 10-10m90 10V60v10m50-10v10-10M220 70c0-10 0-10 0 0m-20 0h10v10-10h-10 10c10 0 10 0 0 0h-10m70 0h-10 10m-90 0h10-10m220 0-10 10 10-10M270 70v10-10m-80 0v10-10m240 0c-10 0 0 0 0 0v10h10l-10-10M250 70v10-10m100 10c10 0 10 0 0 0M220 80l10 10-10-10m50 0h-10 10m150 0c0 10 0 10 0 0 10 0 10 0 0 0M190 80l10 10-10-10m130 0h10-10m-70 0c-10 0-10 0 0 0m-90 0c10 0 10 0 0 0m50 0v10c10 0 10 0 0 0V80m180 0v10-10M160 80c-10 0 0 0 0 0m10 0s0 10 0 0m50 10V80v10m-70 0V80v10m360 10-10-10 10 10M170 90h10-10m60 0h-10 10m200 0h10-10M140 90h10-10m20 0-10 10h10V90m0 0v10-10m40 0v10-10m240 0v10-10m-10 0v10c10 0 10 0 0 0V90m-220 10h10V90l-10 10m-70 0h-10l10 10h10l-10-10c0 10 0 10 0 0-10 0-10 0 0 0m40 0c-10 0-10 0 0 0m10 0h-10 10m-80 10h-10 10m340-10v10-10m-30 0v20-10c10 0 10 0 0 0v-10m70 10v-10 10m-60-10v10-10m-240 10h-10 10c0-10 0 0 0 0m220 0h-10 10m110 0s-10 0 0 0m-360 0v10l10-10v10-10h-10 10v10c10 0 10 0 0 0v-10h-10m250 0h10-10m-290 10-20 10v10h10-10v-10l20-20h10v10l-10-10v10m60-10v10-10c10 0 0 0 0 0m150 0h10v30-10h-20v-10c-10 0 0 0 0 0v-10h-10 20m90 0v10-10m-270 10c10 0 10 0 0 0v10h10-10v-10h10-10m200 0a2440 2440 0 01-10 0h10m110 0v10-10m-340 10h10-10v-10h10l-10 10m350 0c10-10 0-10 0 0m-310 0 10-10-10 10m-20 0v10-10h10-10m330 0c0 10 0 0 0 0m20 0c0 10 0 10 0 0m-360 0v10h10-10v-10m310 0 10 10v-10h-10m-290 0-10 10-10 20v-10h-10l10 10 20-20v-10m310 10s0-10 0 0h10-10m-10 0 10 10v-10 10l-10-10m40 0c0 10 0 10 0 0m-20 10h10-10m40 0v10-10m-50 0 10 10-10-10M90 150l-10 10 20-10v10l-10-10m390 10-10-10 10 10m-10 0h10-10m50 0v10h-10 10v-10c-10 0 0 0 0 0m-30 0v10l10-10h-10M90 160h10-10m0 0v10-10m20 10v-10 10m-30 0v10a20 20 0 01 0-10m400 0h10-10m-370 0v10h-10 10v-10m-20 0v10-10m30 0-10 20 10-20m360 0v10-10m0 10 10 10-10-10m20 10c-10 0-10 0 0 0m30 10v-10 10M60 200v-10l10 10v-10l-10 10m460 0v10-10h10-10m10 0v10-10M60 200v10-10m300 10a1020 1020 0 00 0 60v20l-10 30v70a140 140 0 00 20-20h10v-10a420 420 0 01 10-10v-20l-10-10h-20v-40h30v-30a100 100 0 01-10-10v-10l-10-20h-10M70 210h10-10m10 0-10 10h10v-10m110 10-10 10h-10l-30-10-10 20h10a60 60 0 01 0 120v20h10l20-10 20 20 10-10 10-10-20-20 10-10v-20h30v-30h-10l-20-10v-30l10-10-20-20m210 10v50l-20 10h-10v30h30v20l10 10h-10v30l10 10 20-20h10l20 10v-20a60 60 0 01 10-120l-10-20-20 10h-20l-10-10-10 10m-170-10-10 10v10l-10 10-10 10 10 10v10h30v40h-10l-20 10v30l10 10h10l10 10h10c0 10 0 0 0 0v-70h-10v-30a1540 1540 0 00-10-60m310 0s-10 0 0 0m-350 0c0 10 0 0 0 0M70 230c10 0 10 0 0 0h10-10m510 0a210 210 0 01 10 60v-10a430 430 0 00-10-50M80 230h10-10m460 10h10v-10l-10 10M80 240c0 10 0 10 0 0m460 0c0 10 0 0 0 0m-30 10h10-10M80 250h10-10m0 0v10-10m-20 10h10-10m10 0c10 0 0 0 0 0m-20 0s0 10 0 0m470 0v10-10m20 0v10-10m-30 10h10-10M50 270h10-10m370 0v60h-20v-10l-10-10h-20v-20h30l10-20h10m-230 0 10 20h30v20h-20l-10 10v10h-10l-10-10v-50h10M80 270v10-10H70h10m510 0 10 10v-10h-10m-10 10v-10 10M70 280l-10 20 10-20m460 10v-10 10M80 280v10-10m-60 10v-10 10m40-10c-10 0-10 0 0 0m480 10h-10l10-10v10M50 290v-10 10m10 0v20-10 10-20m470 0h-10l10 20v-10 10-20m0 0v10-10M70 290v10l-10 10v10l10-20v-10 30-30m470 0v10c0-10 0-10 0 0v-10m40 10v10a70 70 0 00 0-10m-10 0c0 10 0 10 0 0m-30 0v10-10m0 0v20-20m0 10h-10s0 10 0 0h10M80 310c0 10 0 10 0 0m-30 0v10-10m300 10s0 10 0 0 0-10 0 0M50 320h10-10m30 0c-10 0-10 0 0 0m100 50h20l-10 10-20-10h10m-30 0h10l-20 10v-10h10m260 0h10l-10 10-10-10h10m50 0v10l-20-10h20M70 390v10c0-10 0-10 0 0h10l-10-10m460 0-10 10 10-10v10-10M50 400v10-10m30 0v10-10m-10 10c0-10 0-10 0 0m460 0h10-10c0-10 0-10 0 0m0 0h-10v10-10h10M70 410s10 0 0 0m470 0h10-10m30 0a320 320 0 01-20 40v-10h10a160 160 0 00 10-30m-30 10v-10 10M70 420c0-10-10-10 0 0m470 0c-10 0-10 0 0 0M80 420h10-10m0 0c0 10 0 10 0 0m130 0a1230 1230 0 00 20 20h20l10 10-10-10a2040 2040 0 01-40-20M40 420v10l10 20v-10H40v-20m50 0v10-10m260 10a690 690 0 01-20 10l10-10h10-10v10l-10 10 10-10 10-10M80 430H70h10m170 0 10 10v10h10l-10-20 20 10h40-10l10-10h-10l-10 10c0-10 0-10 0 0h-10l-10-10v10a650 650 0 01-30-10m280 0h10-10v10l10-10h-10M80 430v10-10h10-10m480 0a120 120 0 00 0 10v-10s10 0 0 0m10 0h-10 10m-60 0 10 10-10-10M70 440v-10 10m450-10v10l-10-10h10m0 10v10l10-10h-10 10l-10-10v10M70 440h10-10m20 0h10-10m-10 0H70h10m0 0h10-10m420 0h10v10-10h-10m-180 0h-10 10m180 10h-10 10v-10 10-10 10m-400 0H90v10l10-10h10v10h-10c0-10 0-10 0 0h10v-10h-10m290 0c10 0 0 0 0 0l-10 10 20-20-10 10M80 450h10-10m120 0h10c-10 0-10 0 0 0l-10-10v10m160 0-10 10h10a140 140 0 00 0-10m-150 0h10-10m170 0h10-10m-170 0 10 10-10-10m210 0h-10v10h-10l-10 10c-10 0-10 0 0 0a1100 1100 0 01 10 0l10-10 10-10m100 0v10-10m-270 10-10-10 10 10m250-10v10-10c-10 0-10 0 0 0m-20 10h10-10m30 0c0 10 0 0 0 0m-400 0h10v10-10h-10m-20 0s10 0 0 0m20 0v10h-10 10v-10m130 0h10-10m-60 0v10-10m240 10v-10 10m60 0h10v10-10h-10m-290 0h10-10m10 0h20-20m-100 0H90h10m390 0 10 10v-10h-10m-10 0h-10v10l10-10v10-10m-350 0v10l-10-10h10m380 0h-10 10m-390 0v10-10 10s-10 0 0 0v-10m240 0-10 10 10-10c-10 0 0 0 0 0m-250 0-10 10c10 0 0 0 0 0l-10-10 10 10h10c-10 0 0 0 0 0 0-10 0-10 0 0v-10m10 10a150 150 0 01 0 10l10-10h-10m10 0v10c10 0 0 0 0 0v-10h10l10 10v10l-10-10-10-10m360 0v10-10m-380 10v-10 10m30 0h-10v10-10h10m310 0-10 10 10-10h20v10l-20-10m70 0v10-10h10-10m-410 10v-10 10m390 0h-10 10v-10 10m-360 0h-10 10c0-10 0-10 0 0 10 0 10 0 0 0v-10 10m160 0h10-10m150 0h10-10m-300 0v10h-10v10-10h10v-10h10-10m-30 0v10h10-10v-10m350 0v10-10m-310 0v10-10m270 10c-10 0-10 0 0 0v20-10h-10v-10l-10 10 10 10h20v-30l-10 10m10-10v30h-20l-10-10 10-10v10l10 10v-20c-10 0 0 0 0 0l10-10m0 10h10v10a60 60 0 00 20-10h-10l-10 10v-10l-10-10v10m-310 0c10 0 0 0 0 0s10 0 0 0m30 0-10 10v-10a60 60 0 01 10 0m-70 0 10 10-10-10m370 0c10 0 0 0 0 0m-290 0-10 10 10-10m10 10v-10 10m-80 0 10 10v-10h-10m40 0h10-10m40 0c0 10 0 10 0 0 0 10 0 10 0 0m-10 0v10c0-10 0-10 0 0v-10m230 0-10 20 10 10c-10 0-20-10-10-20h20l-10-10m-210 0c0 10 0 0 0 0m0 10h-10 10m10 0h-10 10m10 0c10 0 10 0 0 0m-100 0 10 10h10-10l-10-10m290 0 10 10c-10 0-10 0 0 0l-10-10m0 0v10-10m-200 0v10l10-10v10l-10-10m180 0s-10 0 0 0m-190 10v-10 10m180-10v10-10m-140 10v-10 10m150 0c0-10 0-10 0 0m-140 0h-10 10m120 0h10-10m-140 0h-10 10m-20 0h10l-10 10v-10 10-10h10-10m50 0c10 10 0 20-10 20 10 0 20-10 10-20h-10 10m160 0v10-10m-60 0h10v10h10l-10-10h-10m-90 0v20h20c10-10 0-20-20-20m-20 10v-10 20l10-10h-10m40-10v20h-20c-10-10 0-20 20-20m40 0v10h10-10v-10h10-10m60 10c-10 0-10 0 0 0-10 0-10 0 0 0v-10 10m-70-10h10-10m30 10c0-10 0-10 0 0m-50-10h10v10h10v-10h-10l10 10v10l-10-10v-10h-10m-100 10h10-10v-10 10m20 0v-10 10m20 0c0-10 0 0 0 0m100 0h10-10m-60 0-10 10h20-10l-10-10 20 10-10-10m50 0-10 10 10-10m-120 0h10-10m140 0v10h-10 10v10h10l-10-10h-10 10v-10m-110 0-10 10c10 0 10 0 0 0l10-10m0 0 10 10v-10h-10m150 0v10-10m-90 10v10h10-10v-20 10m40 0h-10v10h10-10l10-10m40 0v-10 10m-70 0v10-10l10 10-10-10m-70 0c10 0 10 0 0 0m100 10h10-10m-20 0h10-10m110 0h-10 10m-230 0v10-10m90 0h10-10m30 0h10-10m90 10h10-10m-100 0" fill="#6c1421"/>
    <path d="M290 10V0v10m20 0h10V0l-10 10m-40 0c-10 0-10 0 0 0m60 0h10-10M230 10h10-10m150 10V10v10M280 20h-10L170 50C80 110 20 190 20 290v30h10v-20a270 270 0 11 540 0l10 20-10-60A280 280 0 00 280 20m130 10V20v10m20 0v10-10M150 40h10-10m290 0 10 10a260 260 0 01-10-10M150 50h-10a150 150 0 00 10 0m-20 10 10-10-10 10m350 0v10a170 170 0 01 30 20 280 280 0 01-20-20 400 400 0 01-10-10M100 90H90h10V80v10m-20 20H70l10-10v10m-10 0v10-10m-10 10s0 10 0 0h10-10m200 0v110l10 70 10 10v-10a44420 44420 0 00-20-180M40 160v10a100 100 0 00-10 10 230 230 0 01 10-20m530 10h-10 10m0 10 30 90a290 290 0 01-30-90M20 190h10-10m-10 30h10-10m0 0v10-10m0 40s0 10 0 0m-10 10h10-10m0 30s0 10 0 0m280 10v30h10l-10-20v-10M0 330h10-10m10 10v-10 10m260 10v10l10 10v10-20c-10 0-10 0 0 0v-10h-10M40 390v10a280 280 0 00 520 0v-10 10c-50 130-190 200-320 170-100-30-170-90-200-180m-20 10v10-10m10 20v-10 10m0 10a120 120 0 00 10 20 510 510 0 00 30 40 340 340 0 00 0-10l-30-40a170 170 0 01-10-10m530 10a1190 1190 0 01-40 60 520 520 0 00-20 20 270 270 0 01 10-10 1000 1000 0 01 40-40l10-20v-10m-270 20v10l-10-10c-10-10-10-10 0 0v10l-20-10v10l10 10-20-10v10h-10l-10 10h90s10 0 0 0h10a270 270 0 01 30 0h10-10v-10h-10v-10l-20 10v-10c10-10 10-10 0 0h-10v-10h10-20c0 10 0 10 0 0v-10 10h-10c0-10 0-10 0 0h-10v-10 10m80 20h10-10m-40 10h10-10m140 60h-10a340 340 0 01 10-10v10m-40 20-70 20h-10l-80 10a290 290 0 01-90-30h10a170 170 0 00 10 10 300 300 0 00 230-10" fill="#f6d5d9"/>
    <path d="M280 10A290 290 0 00 30 190v10L10 310c0 10 10 20 30 20v10h70v-80c20-80 70-130 140-150a190 190 0 01 240 220v10h40l40-10 20-30-20-100A280 280 0 00 390 30L280 10m40 10c140 10 260 130 260 280v20l-10-10a270 270 0 10-550-10l10 20-10-30c0-40 10-70 30-100C90 80 200 10 320 20m-40 20v10l-10 10h10v10h10l-10 10-10-10h-10l10 10h-20c-10 0-10 0 0 0V60l-10-10 10-10h10v20-20h20m40 0h30v10h-10v10l10 10c-10 20-40 10-40 0h20V50h-20l10-10m50 10c20 10 30 10 30 30-10 10-20 20-40 10l-10-10 10-10V50h10M210 60v10h-10 10v10h10l10 10-30 10V90l-10-20h-10l30-20v10m160 0v20h10V70l-10-10m70 20c10 10 20 10 10 20 0 10-10 20-20 10h-10c10 0 10 0 0 0h-10v-10l10-10V80h20M170 80l10 20h10v10a110 110 0 01-20 10l-10 10h-10v-10l-10-10v-10l10-10 20-10m260 10v10c10 0 20 0 10-10h-10m-270 10s-10 0 0 0V90v10m320 20c10 10 20 10 10 20l-10 10h-10l10 10h-10l-20-20-10-10h10l10-10 10-10c-10 0 0 0 0 0l10 10m-350-10v10l-10 10h10v10l10-10 10 10a70 70 0 00-10 20h-20v-10c10 0 10 0 0 0l-10-10-10-10 20-20h10m150 10a190 190 0 00-30 0h-10v10l10 10v40a3250 3250 0 00 10 80v40l10 10v40h-10v20l40 40a360 360 0 00 30-40v-20l-10-10c20-10 20-20 10-30v10l-10 20v10h10l-10 10c-10 0 0 0 0 0v10l-20 30v-10c0-10 0-10 0 0v-40h-10 10v-40c-10 0-10 0 0 0V110h-10l-10 10m0 20a7550 7550 0 01 0 130v40l-10-10a860 860 0 01-10-110v-40l-10-20 10-10a450 450 0 00 20 0v20m60-20v10a2080 2080 0 01 0 60v50a1880 1880 0 00-10 60v10-10l10-20v-40a800 800 0 01 10-80 12830 12830 0 01-10-40m130 10h10-10m-110 0v10a6820 6820 0 01-10 140v10l-10 20v60l-40 50-20-20-10-10c-20-20-10-20-10-30v-50l-10-10a940 940 0 00-10-100 2670 2670 0 01 0-40v-20l-10-10-40 20c-30 20-50 50-70 90-10 50-10 110 20 150 10 30 40 50 60 70l30 10h10l-20-10h-10v-10c-20-10-10-10 0 0a230 230 0 00 20 0l10 10h10l-10-10a2370 2370 0 00-30-30l30 20 20 10v-20l20 10v-10l10 10h10l10-10h10v10l30-10c0-10 0-10 0 0l-10 20 20-20 30-10a1110 1110 0 01-30 40 15120 15120 0 00 50-10c30-20 60-60 70-100v-10a190 190 0 00-50-170l-40-30-30-10m150 30h10v10h-10l-20 10h-10v-10c0-10 0-10 0 0h10l10-10v-10l10 10m-410-10v10l-10 20h20v-20l10 20c-10 20-30 20-40 0-10-10 10-30 20-30m270 30h10l10 10 10 10v10h10-10l-10 10-10 20h10v30l-10 10h-20v40h20l10 10v50l10 10-10 10-10 10h-20l-30 10v10-30l-20 20 10-10a320 320 0 00 20-20l10-30v-50l10-20a4360 4360 0 01 10-110m-140 0a1110 1110 0 01 10 90v20a920 920 0 01 10 20v70a1280 1280 0 00 30 40l-10-10v10l-30-10-20-10h-10v-10h-10l10-10v-20l-10-20 10-10 10-10h20v-40h-20l-10-10-10-10 10-10v-20l-20-30 20-10 10-10h10m300 0v20l-10 10h10l10-10v20h-10l-20 10h-10v-10l10-20h-10v10l-10-10v-10h20l10-10h10M70 190v10l20 10 10 10H90l-10 10h10v10a970 970 0 00-10 10v-10H50l10-20h10v-10 10l-10-10v-20h10m130 40 10 10-10 10v30h10l20 10v30h-10l-20 10v20l10 20-20 20-20-20-10 10h-20a390 390 0 00-10-20l30-10c40-30 30-90-20-110h-10l10-10v-10l30 10h10l10-10 10 10m210-10a130 130 0 00 20 10h10l20-10 10 10v10c-30 10-50 30-50 50-10 30 20 70 40 70h10l-10 20-20-10-20 10-10 10-10-10v-40a100 100 0 01-10-20h-20v-20l10-10 20-10v-50l10-10m140 20v30h-10v-10h-20v10l-10-10v-10h30v-10h-10 10v-10l10 10M60 250v10h20v-10l10 10v20l-10-10H50v-20h10m370 30v50-50c0-10 0-10 0 0m-260 10 10 10-10 20a140 140 0 01 0-30v-10 10m-90-10v30H70c-20 20-30-10-20-20h10l20-10m450 0v10l-10 10h10c0-20 20-20 20 0v10h-20c-10 10-20 0-20-20l20-10m-250 30v10l10 20-10 10v-40m0 40v10c10 0 0 0 0 0v20l10 10-20-20v-20h10M40 380l-10 20c20 60 60 100 100 130l10 10 30 20a260 260 0 00 90 30h80a290 290 0 00 230-190l-10-20h-80l-10 10a210 210 0 01-50 60l-10 10h10v10c-50 40-200 40-240 0v-10h10a190 190 0 01-70-80H40m0 10a270 270 0 00 520 0c0-10 0 0 0 0v10a280 280 0 01-520 0v-10c0-10 0 0 0 0m40 10v10H50v-10l20-10 10 10m450-10v10l10 10h10l-10 10h-20v-20l10-10M70 410c0-10 0-10 0 0m20 10 10 20-10 10H80s0 10 0 0a50 50 0 01-10-10l-10-10h10l10-10h10m430 10h10v10h-10v10c0 10 0 10 0 0l-10-10v-10h10M80 430v10l10-10H80m420 10v10h10v20h-10v10h-30l10-10h10-10v-10h20l-10-10 10-10m-390 10v10h-10l-10 10v-10c-10 0-10 0 0 0l10-10v-10l10 10m10 10v20-10l10 10-10 10h-10v-10h-10v-10l10-10h10m20 30 10 10h-10l-10 10c10 0 0 0 0 0l-10-10h10l10-10h-10v-10l10 10m320 0 10 10v10a130 130 0 00-10 0v10h-10l-10-10c0-10 0 0 0 0 10 10 0 20-10 20h-20l10 10-10 10c-20 10-30-20-20-20l20-10 10-10 20-10 10-10h10m-300 10v10l-10 10h-10v-10h10v-10h10m290 0h10-10m-280 10h10v10-10l10 10v10c0-10 0 0 0 0l-10 10-10-10c0-10 0-10 0 0h-20l10-10 10-10c-10 0 0 0 0 0m250 10h10v10-20l-10 10m-210 10 10 10c-10 20-30 10-30 0s10-20 20-10m190 0v10-10m-20 0v30h-10v-10h-10v-10h-10 10l20-10m-180 0v10l10-10h-10m40 10h20c10-10 30 10 20 20h-60l10-10v-20l10 10m100 0v20l10 10a90 90 0 01-20 0l-10-10v-20h20m-20 0v10l-10 20h-20v-30h10c0 10 0 10 0 0h20m-80 10v10-10c0-10 0-10 0 0m30 0v10-10" fill="#070404"/>
    <path d="M280 10h-10A290 290 0 00 60 130l100-80a290 290 0 01 340 40l-30-30-90-40-100-10m-10 0c10 0 0 0 0 0m-10 0h10-10m80 0v10-10h-10 10M240 20h10-10m110 0h10-10M230 20h10-10m140 0h-10 10M230 20c-10 0-10 0 0 0m160 10-10-10 10 10M200 30l-20 10a300 300 0 00 20-10m190 0h10-10M270 30c10 0 0 0 0 0m60 0s-10 0 0 0m80 10c10 0 0 0 0 0V30v10m10 0h10-10M320 40h10-10m-60 0v10-10m20 0v10-10m70 10V40v10m-90 0v10-10 10-10m60 0h10-10m20 0s10 0 0 0m100 0 20 10a380 380 0 01-20-10M330 50v10-10m-60 10h10-10V50v10m70 0c0-10 0-10 0 0M210 50v10-10m180 10 10 10c0 10 0 10 0 0l-10-10M200 60h10-10m170 0v10l10-10v10l-10-10m-90 10h10-10V60v10m40 0s-10 0 0 0M200 70h10c0 10 0 10 0 0h-10 10-10m60 0h10-10m-50 0h10-10m170 0h10-10m-50 0s10 0 0 0m10 0v10-10m-90 0v10-10m-60 0v10-10m240 0 10 10 10 10-20-20m-50 10V70v10m10 0v10l10-10h-10M220 80c10 0 0 0 0 0m-60 0 20 20h10-10l-20-20m30 0 10 10-10-10m20 0v10l10-10-10 10V80m20 0s0 10 0 0m-80 10a90 90 0 00-20 10 160 160 0 01 20-10m50 0v10-10m230 0v10h10V90v10h-10l10-10h-10m20 0c0 10 0 10 0 0M120 90v10-10m40 0-10 10h10V90m60 10h-10a140 140 0 00 10 0m160-10s-10 0 0 0M160 90v10c-10 0 0 0 0 0V90m-50 10v10-10h10-10m-10 0v10-10m390 0h-10 10m-300 0v10c-10 0-10 0 0 0v-10m-60 0 10 10 10 10v10-20h-10v-10h-10m320 0v10-10m-30 0v10c10 0 10 0 0 0v10-10h10l-10-10m60 10c10 20 20 20 10 30v-10a180 180 0 00-10-20m-50 0h10-10m-150 0h10-10m30 0h10-10m10 0h10-10m-50 0c10 0 0 0 0 0m220 0h10-10m-240 0a110 110 0 00-10 10l10-10h20-20m-120 0a110 110 0 01 0 10l-10-10h10m30 0h10v10l10-10v10l-10-10h-10m-40 10a130 130 0 00-20 10 220 220 0 01 20-10m-20 0v-10 10m370-10v10h-10 10v-10m30 10v-10 10m-210-10h10v200c-10 0-10 0 0 0v40h-10 10v40c0-10 0-10 0 0v10l20-30v-10s-10 0 0 0l10-10h-10v-10l10-20v-10c10 10 10 20-10 30l10 10v20l-10 10-20 30-40-40v-20h10v-40l-10-10v-40a2980 2980 0 01-10-80v-40l-10-10v-10h10a170 170 0 01-10 0l10 40a1390 1390 0 01 0 50v30l10 20v40l10 10v40h-10l10 20a150 150 0 01 10 20h-10v-10l-10-20v-50l-10-10v-40l-10-40 10 20a5680 5680 0 01 10 70v50c0 10-10 10 10 30l10 10 20 20 40-50v-60l10-20v-10a1340 1340 0 00 0-50v10a6190 6190 0 00-10 110v10l-20 30-10 20-10 10a170 170 0 01-20-20v-10l20 10v10l20-30 10-10v-60h-10v40l-10 10h10l10 10-30 20v10-10a220 220 0 01 10-10l-10 10v-40h-10l10-10V210a6930 6930 0 00-10-100m-10 10v-10 10m-50 0h10-10m-100 0h-10v10h10v10h10v-10 10h-10v-10h-10l10-10m210 0v10-10h10v20-20h-10m30 0h10-10m90 0-10 10 10-10m-300 10 10-10-10 10m310 0 10 10v-10 10l-10-10 10-10c0 10 0 10 0 0l-10 10m-220-10v10-10m110 10v-10 10m-130 0h10c0 10 0 10 0 0h-10m0 0h-10 10m-80 0h10-10m290 0h10-10m-300 0h10a50 50 0 00-10 0m230 0h10-10m-160 0v10l10-10h-10m150 10v-10 10m90 0-10-10 10 10m-350 0h10-10m360 0h-10l10 10 10 10-10-10v-10m-60 0h10-10m-250 0-20 20-10-10c10 0 10 0 0 0l-10-10 10 10c10 0 10 0 0 0v10h20v-10l10-10m50 0a190 190 0 00-80 120 190 190 0 00 90 210l-10-10h-10l-10-10a200 200 0 01-60-70v-10H40v10l-10 10-10 10v-10 10a330 330 0 01 20 30 60 60 0 00 0 20l20 30 70 60 10 10a280 280 0 00 80 30 300 300 0 00 260-40 290 290 0 00 90-120v-10h10v-10l-10-10-10-10v-10h-40l-40 10-30 40-10 10v-10l30-30a190 190 0 00-10-190c20 40 30 100 20 140v10a190 190 0 01-100 120h10l10-10h10v-10h10l-10 10-10 10h-10l20-10 10-10 30-30 20-30 10-10h80l10 20-20 50-60 70-60 40a290 290 0 01-230 10 260 260 0 01-60-30l-10-10c-40-30-80-70-100-130v-20h90l70 80v10h10a150 150 0 01 30 0h-10l-20-10-60-60a190 190 0 01 60-260m210 0h10a200 200 0 01 30 40 210 210 0 00-40-40m-50 0s0 10 0 0m130 0v10-10m-140 0a1430 1430 0 01-10 100v40l-10 20v10-10a450 450 0 01 0-40 1710 1710 0 01 10-40l-10 20a2780 2780 0 00 10 60v-40a2940 2940 0 00 10-120M70 150c0-10 0-10 0 0m400 0 10 10-10-10h10-10m40 10h10a160 160 0 00-10 0m-270-10a80 80 0 00 0 10v-10M90 150h10v10l-10 10c-10 10 10 20 20 10H90l10-20v-10H90m0 0c-20 20-20 30 0 40 10 10 30 0 30-10v-20 20c-10 10-20 20-30 10-20-10-20-30 0-40m410 0v10-10m-240 10c0-10 0 0 0 0m100 0v10-10m110 0h10-10m-190 0v10-10m270 10h10l-10-10v10m-290 0v-10 10m-20 0c0-10 0 0 0 0m240 0c10 0 0 0 0 0m40 0h-10 10m-40 0h-10 10m30 0c-10 0-10 0 0 0m-270 0s0 10 0 0m20 0v10-10m20 10c0-10 0 0 0 0m80 0v10-20 10m120 0c0-10 0-10 0 0M40 180c-30 50-40 120-30 140l30 20-30-30 20-110v-10a210 210 0 01 10-10m500 0v-10 10m-170 0-10 10a2120 2120 0 01 0 30v-10h10l10 20v10l10 10v30c-10 0-10 0 0 0v-40h-10l10-20 10-10h10-10v-10l-10-10-10-10h-10c0-10 0 0 0 0m-140 0h-10l-10 10-20 10 20 30v20l-10 10 10 10 10 10h-10v-10l-10-10 10-10 10-10v-10l10-10 10 20v10-10a850 850 0 01-10-60m30 0s0 10 0 0M50 180c0 10 0 10 0 0m480 0v10-10m-290 10c0-10 0 0 0 0m330 0a430 430 0 01 10 60l10 50-20 30-40 10h-40v-10a250 250 0 00 0 10h40l40-10c20-10 20-20 20-60a340 340 0 00-20-80m-330 10v10a180 180 0 00 0-10m-100 0-10 10a260 260 0 00 10-10m320 0h10-10v-10 10m70 0h-10 10M70 200h10-10m440 0-10 10 10-10c10 0 10 0 0 0m20 0h10-10m0 0v10h-10v-10 10h10v-10m-20 0v10-10M80 200l10 10v-10H80m390 10 20 60a200 200 0 00-20-60m-350 10a200 200 0 00-10 120H40h70v-10a200 200 0 01 10-110m-50-10H60v10l10-10v10H60h20l-10-10m210 10v-10 10m-90 0-10 10h-10l-30-10v10l-10 10c10 0 10 0 0 0l10-20 30 10h10l10-10 20 20-10 10v30l20 10h10v30h-10 10v-30l-20-10h-10v-30l10-10-10-10-10-10m210 10v50l-20 10-10 10v20-30h10l20-10v-50l10-10h10l10 10h10-10a100 100 0 00-20-10l-10 10m130-10h10-10m-70 10h10v10l-10-20v10M60 220H50h10m130 0s0 10 0 0M80 220v10h10-10l10-10H80m-70 10v10-10m250 10c0-10 0-10 0 0M60 240H50h10m10 0h10v10-10H70m400 0h-10a60 60 0 00 0 120v20l-20-10h-10l-20 20-10-10v-30h10l-10-10v-20h-10l10 20v40l10 10 10-10 20-10 20 10 10-20h-10l-40-30c-20-40 0-80 50-90m80 0v10-10m40 0v10-10m-450 0 40 30v10l-10-20-30-20m120 10v-10 10M90 250v-10 10m270 0c0-10 0 0 0 0m180 0v-10 10m-300 0v10a60 60 0 00 0-10M50 250h10-10m230 0v10-10m80 0v10-10m190 0v20a60 60 0 00 0-20M60 250v10s10 0 0 0v-10m300 10v10-10m170 0c10 0 10 0 0 0m60 0v10-10m-350 10v-10 10m40-10v10-10M50 260v10-10m470 0v10-10M90 270c0-10 0-10 0 0m-60 0c0-10 0 0 0 0m550 0c0-10 0 0 0 0M60 270H50h40l-10 10v-10H60m480 0h10-10m-50 0a100 100 0 00 0 10v-10m80 0s0 10 0 0m-330 10v-10 10m190 0v50-20l10-20-10-10m-170 0c0-10 0 0 0 0m-80 0a110 110 0 00 0 10v-10m50 0s-10 0 0 0m140 0c10 0 0 0 0 0m-130 0v10-10m130 0s-10 0 0 0m-200 0v50l10-40-10-10m70 0v20-20m120 0v40a160 160 0 01 0-40M70 280h10v40-10c10-10 10-30-10-30m190 0h10-10m260 0h10-10M60 290v-10 30-10l10-20-10 10m470 0v20-10h-10l10-10v-10 10M30 300v10a350 350 0 00 0-10m330-10c0-10 0 0 0 0m130 0s0 10 0 0M20 300c0 10 0 10 0 0m340-10v10-10m-180 0v10-10m370 10v-10 10M70 290v10l-10 10v10l10-10c0 10 0 0 0 0v-20m470 0v10l-10 10c0 10 0 10 0 0h10v-20m-300 10v10-10c0-10 0 0 0 0m110 0h10-10m-70 0v10-10M40 300s0 10 0 0m140 10-20 40-30 10v10a390 390 0 01 10 10h20l10-10 20 20 20-20-10-20v-20l10-10h-10v20l-10 10 20 20-10 10-10 10-20-20-20 10h-10v-20l40-30v-20m60 0 10 10-10-10m110 0v10-10m220 10v-10 10M70 320h10-10m-50 0h10-10m360 0s-10 0 0 0m-170 0h10-10m170 0h10-10m-30 0v10-10m-110 0c-10 0-10 0 0 0m40 10v-10 10m-60-10-10 10-10 10 10 20v20l-10 10h10v10h10l20 10 30 10v-10l10 10 10 10v-10l-10-10-30-30v-50 50s0 10 0 0h-10l-10-10h-10l-10-10v-30l10-10s10 0 0 0m160 0s-10 0 0 0m10 10v20a420 420 0 00-10 10v10a100 100 0 01-10 10l-20 10v-30 10l-10 20a1240 1240 0 00-10 10v30-10l30-10h20l10-10 10-10-10-10v-60 10m-40 10v-10 10m0 0v10-10m0 10v10-10m-180 20 20 10 10-10h-30m-30 0v10l20-10h-10a390 390 0 01-10 0m260 0 10 10 10-10h-20m50 0h-10l20 10v-10h-10M70 390v10H60h10v-10m460 0-10 10 10-10v10l10 10-10-10v-10m-10 10v10h10-10v-10M70 400v10s0-10 0 0v-10m470 10h10c-10 0-10 0 0 0h-10m-20 0-10 10h10v-10m50 10a210 210 0 01-20 30 60 60 0 00 0-10 640 640 0 01 20-20M50 410v10-10m490 10v-10 10m-10 0h10-10M80 420s-10 0 0 0m0 0h10c0 10 0 10 0 0H80m-20 0v10-10H50h10m330 0c-10 0-10 0 0 0l-10 10-10 20 10-20 10-10M80 420v10-10m-40 10v10a150 150 0 00 10 10 80 80 0 01-10-30v10m180-10v10-10m130 10a110 110 0 01-20 0 520 520 0 01 20 0v-10 10m30 0v-10 10M70 430h10-10m20 0h10-10m130 0h20l20 20-20-10-20-10m100 0h-10l-10 10c0-10 0-10 0 0 0-10 0-10 0 0h10l10-10m50 0h-10 20-10m-90 0 10 10-10-10M60 430h10-10m200 0 20 10h-10a250 250 0 01-10-10M80 430v10l10-10H80m480 0v10-10c10 0 0 0 0 0M90 430l-10 10v-10h10m250 0v10-10m-10 10v-10 10m180-10 10 10v-10h-10m10 10h10l-10 10v10l10-20h-10 10-10M70 440h10-10m30 0H90v10l10-10m220 0h-10 20-10m20 0v10-10M70 440v10-10m430 0v10l10 10a190 190 0 01 0-10h-10v-10m-400 0 10 10v10h-10l10-10-10-10m100 0 10 10v10h20v10a490 490 0 00-30-30l10 10 30 10h10-10v-10 10h10-10l-10-10h-20l-10-10m190 10h10-10 10-10m100 0c10-10 10-10 0 0m-150 0c0-10 0 0 0 0m170 0h10-10m-150 0-10 10 10-10m-260 0H90h10m280 10v-10 10m110-10v10h10-10 10l-10-10m-390 10-10 10 10-10m20 0h-10 10m-10 0v10h-10 10v-10m370 0v10h10-10l10 10v-10l-10-10M90 470l-10-10 10 10m30 0v10c-10 0 0 0 0 0v-10 10-20 10m240 0c-10 0-10 0 0 0h10-10m140 0h10-10c-10 0-10 0 0 0m-370 0v10l-10 10h-10 10l10-10-10-10h10m340 0v10-10m-360 10s-10 0 0 0h-10 10c0-10 0-10 0 0m-20-10 10 10-10-10m0 10h10-10m300 0h10-10m-190 0h10-10m270 0h10-10m-340 0v10-10m10 0a1120 1120 0 01 10 20 110 110 0 00-10-20m360 0v10-10h10-10m-400 10v-10 10m10-10v10-10m380 0v10-10m10 10h10-10m-370 0h10-10c10 0 10 0 0 0m320 0-10 10-10 10v-10h10v30-20s0-10 0 0v-10a170 170 0 01 10-10m10 0 10 10-10-10m30 0v10-10h10-10m-350 10-10 10s10 0 0 0l10-10c0-10 0 0 0 0m150 0h10-10m160 0h10-10m-300 0v10-10h10-10m310 0h-10 10m-350 0h10-10m370 0h10-10m-360 0h10-10m0 10h10-10v-10 10m370 0v-10 10m-20 0a40 40 0 01-10 0l-10 10v-10c-10 0 0 0 0 0v10h10a120 120 0 00 10-10m-40 0h-10l-10 10 10-10v10l10 10v-20c-10 0-10 0 0 0m-320 0h10-10m60 0h-10 10m-10 0h-10v10l10-10m300 0s10 0 0 0m-330 0s10 0 0 0m40 0 10 10v10-20 10-10h-10m-20 0h-10v10-10h10m20 0v10-10m260 0v20-20m-20 10h-10c20 0 20 20 10 30l10-10-10-10h20-10l-10-10m-240 10c0-10 0-10 0 0 0-10 0-10 0 0m220 0 10 20-10-20c10-10 10-10 0 0m-190 0h-10 10m10 0 10 10h-10v-10l-10 10v10l10-10h-10 10v10h-10l20-10-10-10m-60 0h10s-10 0 0 0h-10m30 0v10l10-10h-10m220 0-10 10h20l-10-10m0 0v10-10m-230 0v10-10m200 0h10-10m-160 0-10 10v-10h10m160 0-10 10h10v-10m-140 10 20 10c0 10-10 20-20 10-10 0-10 0 0 0h50c10-10-10-30-20-20h-10l-20-10v10m150 0v10-10m-20 0h-10 10m-30 0-10 10v10h10l-10-10 10-10m-60 0c20 10 20 20 10 30-10 0-30-10-20-20l10-10m-30 0-10 20h10v-20m70 0h-10c0 10 0 10 0 0h-10l10 10 10 10v-10l-10-10h20v10-10h-10m40 0h10-10m-160 0 10 10h-10v-10m170 10h10v10-10h-10m-120 0c0 10 0 10 0 0 0 0 0-10 0 0m100 0h-10 10v10h-10 10v-20 10m-50 0v20-20m-60 0-10 10 10-10m40 0v10-10m50 10c0 10 0 10 0 0v-10 10m-50-10v10-10m70 10v10h10v-10h-10m-40 0v10h-10 20l-10-10m20 10h20-20m-50 0s10 0 0 0m60 10s-10 0 0 0m-20 0" fill="#37080f"/>
    <path d="M310 30c10 0 10 0 0 0m20 0c10 0 0 0 0 0m90 0a150 150 0 01 20 10 90 90 0 00-10-10h-10M170 30l-10 10h10V30m-40 30-10 10h-10v10h-10L90 90a130 130 0 00 10 0 300 300 0 01 30-30m350 0v10a170 170 0 01 20 10h-10l-10-10V60m-370 40 10-10-10 10m370-10h10v10-10h-10m30 10h10-10V90v10m-400 10h-10 10m390-10v10-10h-10 10m20 10h10l-10-10v10m-420 0v-10 10m390 0c10 0 0 0 0 0v-10 10M90 110v10-10h10-10m410 10h10-10m40 0h-10 10m-260 0v10-10M60 120v10-10m190 10c0-10 0 0 0 0m290 0s0-10 0 0m-280 20c0-10 0 0 0 0M50 150H40h10m510 0v10s0 10 0 0v-10m-300 10c0-10 0 0 0 0M40 160s0 10 0 0a130 130 0 01-10 20 180 180 0 00 10-20m240 0v10-10m-20 10v-10 10m0 10v-10 10m20 0c0-10 0-10 0 0m-20 0s0 10 0 0m20 30v10-10m0 50v10-10M20 270v10-10m560 10v-10 10M30 280v-10 10m-10 0s0 10 0 0m560 0s0 10 0 0M0 280v10-10m30 10v-10 10m570-10v10-10m-20 20v10a170 170 0 00 0-10m20 0c0-10 0 0 0 0m-30 0s0 10 0 0m-290 0v10-10m320 20v-10 10M0 320c0-10 0 0 0 0m570 0h10-10c0-10 0-10 0 0m-290 0v10-10m10 70v-10 10M30 410a40 40 0 01 0 20h10-10a300 300 0 01 0-20m530 20v10-10h10-10M40 440c0 10 0 10 0 0m10 10v10-10m20 30v10l10 10-10-10-10-10h10m430 0h10-10M90 480h10v10-10H90m400 10v10-10m10 0v10-10m20 10v10-10M80 500h10c0 10 0 10 0 0a80 80 0 01 10 20 40 40 0 00 10 0 8200 8200 0 00-30-20m410 0v10-10m-380 30h10-10m10 10s0-10 0 0m10 0s-10 0 0 0m320 10v10l10-10h-10m-300 10h10a50 50 0 01 10 10h10-10a480 480 0 01-20-10m300 0c-10 0-10 0 0 0m-170 10s-10 0 0 0m40 0c10 0 0 0 0 0m-30 0s-10 0 0 0m20 0h10-10m-40 10h10-10m10 20h10-10m30 0h10-10" fill="#828485"/>
    <path d="M230 20h-10l10-10v10m160 0h10-10M190 20v10-10h10-10m100 0s-10 0 0 0m20 0h10-10m10 0h10-10m80 0 10 10a150 150 0 01-10-10M180 30h10-10m0 0c-10 0-10 0 0 0m290 30h10a180 180 0 01-10 0M120 70s-10 0 0 0m370 0v10-10M100 80 90 90l10-10 10-10-10 10m400 0v10-10m-390 20h-10 10m0 0h10-10m380 0h-10 10m30 10v-10 10M70 110h10-10m430 0v10-10h-10 10m0 0h10-10m-400 0v10-10m180 20v10-10m0 20c0-10 0-10 0 0m280 10v10-10m10 10h-10 10m0 0v10-10m-290 10c0 10 0 10 0 0m-20 20v-10 10m20 0c0-10 0 0 0 0m-20 10v-10 10m20 10s0 10 0 0m0 20v-10 10m0 30c0 10 0 10 0 0m0 20v-10 10m-10 0c0-10 0 0 0 0M30 300s0 10 0 0m540 0v-10 10m30 10v-10 10M20 410h10-10m480 80v-10 10m-400 0H90h10m170 0h10-10m250 10v-10 10m-240-10h10-10m30 0h10-10M80 500l10 10-10-10m30 0h10-10m380 0h-10 10m-380 0v10-10m400 10s10 0 0 0m0 0-10 10 10-10m-10 10-10 10 10-10m-210 50h10-10m10 0h10-10m-20 10h10-10m30 0h10-10" fill="#7c797c"/>
  </g>
</svg>